<svg width="31" height="35" viewBox="0 0 31 35" fill="none" xmlns="http://www.w3.org/2000/svg">
<path d="M15.5825 20.8633C15.1118 20.8633 14.7172 20.7041 14.3987 20.3856C14.0803 20.0672 13.9211 19.6726 13.9211 19.2018C13.9211 18.7311 14.0803 18.3365 14.3987 18.018C14.7172 17.6996 15.1118 17.5403 15.5825 17.5403C16.0533 17.5403 16.4479 17.6996 16.7663 18.018C17.0848 18.3365 17.244 18.7311 17.244 19.2018C17.244 19.6726 17.0848 20.0672 16.7663 20.3856C16.4479 20.7041 16.0533 20.8633 15.5825 20.8633ZM8.93665 20.8633C8.46589 20.8633 8.07129 20.7041 7.75284 20.3856C7.4344 20.0672 7.27517 19.6726 7.27517 19.2018C7.27517 18.7311 7.4344 18.3365 7.75284 18.018C8.07129 17.6996 8.46589 17.5403 8.93665 17.5403C9.4074 17.5403 9.802 17.6996 10.1204 18.018C10.4389 18.3365 10.5981 18.7311 10.5981 19.2018C10.5981 19.6726 10.4389 20.0672 10.1204 20.3856C9.802 20.7041 9.4074 20.8633 8.93665 20.8633ZM22.2284 20.8633C21.7577 20.8633 21.3631 20.7041 21.0446 20.3856C20.7262 20.0672 20.567 19.6726 20.567 19.2018C20.567 18.7311 20.7262 18.3365 21.0446 18.018C21.3631 17.6996 21.7577 17.5403 22.2284 17.5403C22.6992 17.5403 23.0938 17.6996 23.4122 18.018C23.7307 18.3365 23.8899 18.7311 23.8899 19.2018C23.8899 19.6726 23.7307 20.0672 23.4122 20.3856C23.0938 20.7041 22.6992 20.8633 22.2284 20.8633ZM15.5825 27.5092C15.1118 27.5092 14.7172 27.35 14.3987 27.0315C14.0803 26.7131 13.9211 26.3185 13.9211 25.8477C13.9211 25.377 14.0803 24.9824 14.3987 24.6639C14.7172 24.3455 15.1118 24.1862 15.5825 24.1862C16.0533 24.1862 16.4479 24.3455 16.7663 24.6639C17.0848 24.9824 17.244 25.377 17.244 25.8477C17.244 26.3185 17.0848 26.7131 16.7663 27.0315C16.4479 27.35 16.0533 27.5092 15.5825 27.5092ZM8.93665 27.5092C8.46589 27.5092 8.07129 27.35 7.75284 27.0315C7.4344 26.7131 7.27517 26.3185 7.27517 25.8477C7.27517 25.377 7.4344 24.9824 7.75284 24.6639C8.07129 24.3455 8.46589 24.1862 8.93665 24.1862C9.4074 24.1862 9.802 24.3455 10.1204 24.6639C10.4389 24.9824 10.5981 25.377 10.5981 25.8477C10.5981 26.3185 10.4389 26.7131 10.1204 27.0315C9.802 27.35 9.4074 27.5092 8.93665 27.5092ZM22.2284 27.5092C21.7577 27.5092 21.3631 27.35 21.0446 27.0315C20.7262 26.7131 20.567 26.3185 20.567 25.8477C20.567 25.377 20.7262 24.9824 21.0446 24.6639C21.3631 24.3455 21.7577 24.1862 22.2284 24.1862C22.6992 24.1862 23.0938 24.3455 23.4122 24.6639C23.7307 24.9824 23.8899 25.377 23.8899 25.8477C23.8899 26.3185 23.7307 26.7131 23.4122 27.0315C23.0938 27.35 22.6992 27.5092 22.2284 27.5092ZM3.12148 34.1551C2.45689 34.1551 1.87538 33.9059 1.37694 33.4074C0.878494 32.909 0.629272 32.3275 0.629272 31.6629V5.91001C0.629272 5.24542 0.878494 4.6639 1.37694 4.16546C1.87538 3.66702 2.45689 3.41779 3.12148 3.41779H5.82138V0.925583H8.52128V3.41779H22.6438V0.925583H25.3437V3.41779H28.0436C28.7082 3.41779 29.2897 3.66702 29.7882 4.16546C30.2866 4.6639 30.5358 5.24542 30.5358 5.91001V31.6629C30.5358 32.3275 30.2866 32.909 29.7882 33.4074C29.2897 33.9059 28.7082 34.1551 28.0436 34.1551H3.12148ZM3.12148 31.6629H28.0436V13.802H3.12148V31.6629Z" fill="#555555"/>
</svg>
