<svg width="34" height="31" viewBox="0 0 34 31" fill="none" xmlns="http://www.w3.org/2000/svg">
<path d="M17.4216 30.4936C17.6431 30.4936 17.8369 30.4659 18.0031 30.4105C18.1692 30.3551 18.3631 30.2167 18.5846 29.9952L32.4164 16.1218C32.8871 15.6511 33.2471 15.1319 33.4963 14.5642C33.7456 13.9965 33.8702 13.4358 33.8702 12.882C33.8702 12.0789 33.7525 11.3728 33.5171 10.7636C33.2817 10.1544 32.9148 9.60055 32.4164 9.10211L25.3967 2.04084C24.8982 1.5424 24.3444 1.17549 23.7352 0.940115C23.126 0.704739 22.4614 0.587051 21.7414 0.587051C21.1599 0.587051 20.5784 0.704739 19.9969 0.940115C19.4153 1.17549 18.8892 1.51471 18.4185 1.95777L18.1692 2.24853L25.6043 9.68363C25.9643 10.0436 26.2205 10.4105 26.3728 10.7844C26.5251 11.1582 26.6012 11.5389 26.6012 11.9266C26.6012 12.8958 26.2966 13.6642 25.6874 14.2319C25.0782 14.7996 24.3305 15.0834 23.4444 15.0834C22.9183 15.0834 22.4683 14.9796 22.0945 14.7719C21.7206 14.5642 21.3814 14.3081 21.0768 14.0035L15.8016 8.72828L6.53892 17.991C6.37277 18.1571 6.24816 18.3371 6.16509 18.531C6.08201 18.7248 6.04048 18.9325 6.04048 19.154C6.04048 19.6248 6.1997 20.0125 6.51815 20.3171C6.8366 20.6217 7.2312 20.774 7.70195 20.774C7.97887 20.774 8.21424 20.7324 8.40808 20.6494C8.60192 20.5663 8.76807 20.4555 8.90652 20.3171L16.5493 12.6327L17.4216 13.505L9.73726 21.1893C9.57111 21.3555 9.4465 21.5355 9.36343 21.7293C9.28035 21.9232 9.23882 22.1308 9.23882 22.3524C9.23882 22.7954 9.40496 23.1831 9.73726 23.5154C10.0696 23.8477 10.4572 24.0138 10.9003 24.0138C11.1495 24.0138 11.371 23.9723 11.5649 23.8892C11.7587 23.8062 11.9387 23.6815 12.1049 23.5154L19.7892 15.8726L20.6615 16.7449L12.9771 24.4292C12.8387 24.5677 12.7279 24.7269 12.6448 24.9069C12.5618 25.0869 12.5202 25.3153 12.5202 25.5922C12.5202 26.063 12.6795 26.4576 12.9979 26.776C13.3164 27.0945 13.711 27.2537 14.1817 27.2537C14.4032 27.2537 14.6109 27.2122 14.8048 27.1291C14.9986 27.046 15.1786 26.9214 15.3447 26.7553L23.0291 19.071L23.9013 19.9432L16.217 27.6275C16.0509 27.7937 15.9263 27.9806 15.8432 28.1883C15.7601 28.396 15.7186 28.5967 15.7186 28.7906C15.7186 29.2613 15.8847 29.6629 16.217 29.9952C16.5493 30.3274 16.9508 30.4936 17.4216 30.4936V30.4936ZM4.33747 18.3648L15.7601 6.94219L21.9076 13.0896C22.1568 13.3389 22.4129 13.5258 22.676 13.6504C22.9391 13.775 23.1952 13.8373 23.4444 13.8373C23.9983 13.8373 24.4552 13.6573 24.8151 13.2973C25.1751 12.9373 25.3551 12.4804 25.3551 11.9266C25.3551 11.7051 25.3067 11.4836 25.2097 11.262C25.1128 11.0405 24.9398 10.8051 24.6905 10.5559L16.1755 2.04084C15.6216 1.48702 15.054 1.10626 14.4725 0.898578C13.8909 0.690894 13.2264 0.587051 12.4787 0.587051C11.8972 0.587051 11.3018 0.718585 10.6926 0.981652C10.0834 1.24472 9.55727 1.59778 9.11421 2.04084L2.09448 9.10211C1.67911 9.51748 1.33297 10.0298 1.05605 10.639C0.779142 11.2482 0.640686 11.9128 0.640686 12.6327C0.640686 13.2973 0.765296 13.9342 1.01452 14.5434C1.26374 15.1526 1.62373 15.6788 2.09448 16.1218L4.33747 18.3648Z" fill="#A4A4A4"/>
</svg>
