<svg width="111" height="61" viewBox="0 0 111 61" fill="none" xmlns="http://www.w3.org/2000/svg">
<g clip-path="url(#clip0_1_141)">
<path d="M0.90741 0.937592C1.63953 0.937592 1.26766 1.4954 1.26766 1.76268C1.2909 5.84164 1.2909 9.93221 1.2909 14.0112C1.2909 22.6804 1.2909 31.3496 1.27928 40.0305C1.27928 40.3559 1.59305 40.8905 0.919031 40.995V0.937592H0.90741Z" fill="white"/>
<path d="M70.9353 18.7385C69.8081 18.7385 68.8087 18.7385 67.8093 18.7385C66.0778 18.7385 64.3463 18.7501 62.6147 18.7385C62.2661 18.7385 61.7315 18.9593 61.6153 18.5409C61.4759 18.018 61.5572 17.4137 61.6153 16.8559C61.6502 16.577 61.9756 16.6699 62.1731 16.6699C66.6123 16.6699 71.0516 16.6699 75.4908 16.6699C76.0253 16.6699 76.0718 16.821 75.8626 17.2626C73.3525 22.7361 70.854 28.2212 68.3439 33.6947C67.5885 35.3448 66.8331 36.995 66.0313 38.7265C69.3781 38.7265 72.632 38.7265 75.8975 38.7265C76.1764 38.7265 76.6529 38.5174 76.711 38.9241C76.7807 39.5632 76.8969 40.2373 76.618 40.8532C76.5831 40.9345 76.2694 40.9229 76.095 40.9229C71.0283 40.9229 65.9616 40.9229 60.7205 40.9229C64.1255 33.5087 67.4955 26.1759 70.9237 18.7269L70.9353 18.7385Z" fill="white"/>
<path d="M91.8183 26.0751C91.8997 28.4923 91.5975 31.4905 91.9462 34.4655C92.3994 38.4979 96.0484 39.7995 98.7677 39.1022C100.023 38.7768 100.766 37.8239 101.255 36.6851C102.022 34.9071 102.324 33.0245 102.324 31.0954C102.324 26.5632 102.324 22.031 102.335 17.4989C102.335 17.1967 102.115 16.697 102.591 16.6157C103.137 16.5227 103.718 16.5808 104.276 16.6505C104.462 16.6738 104.369 16.9875 104.369 17.1619C104.392 21.9497 104.439 26.7259 104.392 31.5137C104.381 33.3266 104.067 35.1279 103.439 36.8594C102.521 39.4276 100.488 41.438 97.3615 41.2405C96.3621 41.1824 95.3511 41.1824 94.3633 40.9848C90.877 40.2527 88.9712 37.9866 88.5296 34.0704C87.9718 29.1198 88.2042 24.1577 88.1693 19.1955C88.1693 18.3937 87.8091 17.3478 88.3321 16.8365C88.8434 16.3251 89.8893 16.7667 90.6911 16.6622C91.5859 16.5459 91.8764 16.8248 91.8532 17.7661C91.7835 20.346 91.83 22.9259 91.83 26.0751H91.8183Z" fill="white"/>
<path d="M43.8812 28.8041C43.8812 32.5809 43.8579 36.3577 43.8928 40.1229C43.8928 40.7969 43.7069 40.9944 43.0561 40.948C42.3007 40.8899 41.5454 40.9131 40.79 40.948C40.3717 40.9596 40.209 40.8085 40.2438 40.4018C40.2554 40.2507 40.2438 40.088 40.2438 39.9253C40.2438 32.4647 40.2554 25.0156 40.2206 17.555C40.2206 16.7531 40.453 16.5091 41.22 16.6021C42.0799 16.7066 43.242 16.2186 43.7417 16.7996C44.1717 17.2993 43.8696 18.4149 43.8812 19.2633C43.8812 22.4358 43.8812 25.6199 43.8812 28.7924V28.8041Z" fill="white"/>
<path d="M32.3078 58.3459C32.3078 57.0211 32.3078 55.7079 32.3078 54.3832C32.3078 54.1507 32.2032 53.8486 32.6099 53.8253C33.0515 53.8021 33.0167 54.1042 33.0167 54.3948C33.0167 56.2541 33.0167 58.1019 33.0167 59.9612C33.0167 60.2053 33.1794 60.5539 32.7262 60.6352C32.3194 60.705 32.0986 60.5306 31.9243 60.1704C31.3084 58.9037 30.6692 57.637 30.0301 56.382C29.9139 56.1495 29.8674 55.8474 29.4955 55.6731C29.4955 57.1606 29.4955 58.5899 29.4955 60.0193C29.4955 60.2634 29.6234 60.6352 29.1585 60.6468C28.6821 60.6468 28.8099 60.2982 28.8099 60.0426C28.8099 58.2181 28.8099 56.3936 28.8099 54.5807C28.8099 54.3134 28.5891 53.8951 29.1237 53.8602C29.5304 53.8253 29.879 53.8137 30.1231 54.3134C30.7622 55.6963 31.4827 57.0443 32.1684 58.4156C32.2148 58.404 32.2613 58.3924 32.3078 58.3808V58.3459Z" fill="white"/>
<path d="M50.7964 57.5685C50.7964 58.4169 50.7848 59.2652 50.7964 60.1135C50.7964 60.5203 50.6453 60.6481 50.2386 60.6481C49.8319 60.6481 49.6808 60.5203 49.6808 60.1135C49.6808 58.1961 49.6924 56.2786 49.6808 54.3612C49.6808 53.9544 49.8086 53.8033 50.227 53.815C50.8894 53.8498 51.5518 53.7917 52.2025 53.8382C52.9811 53.8847 53.5738 54.2333 53.8643 55.0003C54.1316 55.7208 54.027 56.36 53.4227 56.8597C53.0509 57.1618 52.9928 57.4872 53.2019 57.9172C53.4925 58.5447 53.7481 59.1838 53.9805 59.823C54.0619 60.0438 54.4338 60.3692 53.9922 60.5086C53.6784 60.6132 53.2252 60.6946 53.016 60.2065C52.6209 59.2536 52.2142 58.3007 51.819 57.3477C51.668 56.9991 51.9585 56.941 52.1677 56.8132C52.8068 56.4297 53.109 55.8486 52.8649 55.1398C52.586 54.3495 51.819 54.489 51.1683 54.4309C50.7034 54.3844 50.7848 54.733 50.7848 55.0003C50.7848 55.8486 50.7848 56.697 50.7848 57.5453L50.7964 57.5685Z" fill="white"/>
<path d="M109.75 40.9467C109.355 40.8072 109.517 40.4702 109.517 40.2262C109.517 27.3502 109.517 14.4857 109.517 1.60972C109.517 1.38892 109.297 0.947327 109.738 0.947327C110.064 0.947327 109.913 1.35406 109.913 1.57486C109.913 14.509 109.913 27.4431 109.913 40.3772C109.913 40.5748 110.006 40.8188 109.738 40.9467H109.75Z" fill="white"/>
<path d="M28.1465 40.9369V0.937592C28.2162 0.937592 28.2859 0.937592 28.344 0.937592V40.9369C28.2743 40.9369 28.2046 40.9369 28.1465 40.9369Z" fill="white"/>
<path d="M55.3406 40.9137V0.937592C55.3987 0.937592 55.4684 0.937592 55.5265 0.937592V40.9137C55.4684 40.9137 55.3987 40.9137 55.3406 40.9137Z" fill="white"/>
<path d="M82.4398 40.9032V0.961945C82.4398 0.961945 82.556 0.961945 82.6141 0.961945V40.9032H82.4398Z" fill="white"/>
<path d="M11.3311 57.2977C11.3311 58.2389 11.3311 59.1802 11.3311 60.1332C11.3311 60.3656 11.4008 60.6677 10.9941 60.6445C10.6571 60.6329 10.5757 60.4353 10.5757 60.1448C10.5757 59.4475 10.5409 58.7619 10.5757 58.0646C10.6106 57.5533 10.413 57.4487 9.92494 57.4487C8.28639 57.4371 8.29801 57.4139 8.29801 59.0524C8.29801 59.401 8.27477 59.7497 8.29801 60.0867C8.33287 60.4934 8.1818 60.6445 7.76345 60.6329C7.4032 60.6212 7.17078 60.5748 7.17078 60.1332C7.1824 58.1808 7.1824 56.2285 7.17078 54.2762C7.17078 53.7881 7.4613 53.8346 7.78669 53.8114C8.1237 53.7997 8.30963 53.8695 8.29801 54.2646C8.27477 54.8572 8.32125 55.4615 8.28639 56.0542C8.2399 56.6236 8.41422 56.8096 9.01851 56.8096C10.5641 56.8096 10.5641 56.8328 10.5641 55.2872C10.5641 54.9386 10.5641 54.59 10.5641 54.253C10.5641 53.9392 10.7035 53.7997 11.0289 53.7997C11.3776 53.7997 11.3311 54.0438 11.3311 54.2646C11.3311 55.2756 11.3311 56.275 11.3311 57.286V57.2977Z" fill="white"/>
<path d="M13.6669 57.1504C13.6669 56.2323 13.6901 55.3259 13.6669 54.4078C13.6436 53.943 13.7947 53.8036 14.2479 53.8152C15.0614 53.85 15.8865 53.8152 16.6999 53.8152C16.9556 53.8152 17.2229 53.7803 17.2229 54.1638C17.2229 54.5589 16.9324 54.5008 16.6883 54.5124C16.5024 54.5124 16.3048 54.5124 16.1189 54.5124C14.8638 54.5124 14.9219 54.5124 14.8406 55.7326C14.7941 56.581 15.0265 56.9528 15.9097 56.8018C16.2119 56.7553 16.5372 56.8018 16.851 56.8018C17.0718 56.8018 17.1996 56.9063 17.1996 57.1388C17.1996 57.3712 17.0834 57.4874 16.8626 57.499C16.6767 57.5106 16.4791 57.499 16.2932 57.5223C15.84 57.5687 15.166 57.2898 14.9568 57.6501C14.6314 58.2079 14.8638 58.9284 14.8522 59.5908C14.8522 59.9162 15.0962 59.8929 15.317 59.8929C15.7935 59.8929 16.2583 59.8929 16.7348 59.8929C16.9672 59.8929 17.188 59.8929 17.188 60.2183C17.188 60.4972 17.0718 60.6134 16.7929 60.6018C15.8748 60.6018 14.9684 60.5902 14.0504 60.6018C13.5971 60.6018 13.6436 60.3229 13.6436 60.0324C13.6436 59.0562 13.6436 58.0801 13.6436 57.1039L13.6669 57.1504Z" fill="white"/>
<path d="M101.684 59.9267C102.428 59.9267 103.183 59.9267 103.927 59.9267C104.171 59.9267 104.473 59.857 104.485 60.2521C104.496 60.6821 104.183 60.6356 103.892 60.6356C102.637 60.6356 101.382 60.6356 99.9643 60.6356C100.894 58.5787 101.789 56.6148 102.742 54.523C101.986 54.523 101.359 54.523 100.731 54.523C100.487 54.523 100.208 54.523 100.208 54.1511C100.208 53.7444 100.522 53.8374 100.755 53.8374C101.731 53.8374 102.707 53.8606 103.683 53.8257C104.311 53.8025 104.276 54.0233 104.055 54.4765C103.346 55.9756 102.672 57.498 101.986 59.0087C101.859 59.2876 101.614 59.52 101.684 59.9384V59.9267Z" fill="white"/>
<path d="M106.705 56.603C106.705 57.2305 106.705 57.858 106.705 58.4856C106.728 59.5198 107.217 60.0428 108.158 60.0544C108.925 60.0544 109.436 59.5431 109.471 58.5553C109.517 57.3932 109.471 56.2311 109.471 55.069C109.471 54.8134 109.471 54.5693 109.471 54.3137C109.483 54.0929 109.378 53.7675 109.796 53.8023C110.203 53.8256 110.075 54.1393 110.087 54.3601C110.099 54.639 110.087 54.9296 110.087 55.2085C110.122 56.2427 110.215 57.277 110.168 58.3113C110.122 59.2642 109.889 60.2171 108.843 60.6122C107.949 60.9492 106.717 60.6238 106.147 59.9731C105.648 59.4153 105.613 58.7064 105.578 58.0324C105.532 56.8354 105.578 55.6501 105.555 54.4531C105.555 54.058 105.578 53.8139 106.089 53.8139C106.566 53.8139 106.67 54.0115 106.659 54.4299C106.635 55.1504 106.659 55.8709 106.659 56.603H106.705Z" fill="white"/>
<path d="M23.0569 56.6272C23.0569 57.2548 23.0569 57.8823 23.0569 58.5098C23.0802 59.486 23.5566 60.0089 24.4398 60.067C25.2184 60.1135 25.7762 59.6022 25.8343 58.6493C25.8924 57.4291 25.8227 56.1973 25.8692 54.9771C25.8808 54.5936 25.6019 53.8731 26.1132 53.8731C26.8337 53.8731 26.4154 54.6052 26.4386 54.9887C26.52 56.1392 26.5432 57.3129 26.5083 58.4633C26.4735 59.8346 25.8343 60.6132 24.8117 60.683C23.0685 60.7992 22.3713 60.2995 22.0691 58.7306C21.7786 57.2315 22.0227 55.7324 21.9413 54.2333C21.9181 53.7801 22.2434 53.8614 22.5224 53.8382C22.8477 53.815 23.0685 53.8731 23.0685 54.2798C23.0685 55.07 23.0685 55.8486 23.0685 56.6389L23.0569 56.6272Z" fill="white"/>
<path d="M44.3819 57.2311C44.3819 56.2898 44.3936 55.3485 44.3819 54.4072C44.3703 53.9772 44.4865 53.8029 44.9514 53.8261C45.73 53.861 46.5202 53.8261 47.3104 53.8377C47.5545 53.8377 47.8334 53.768 47.8566 54.1631C47.8798 54.5582 47.6126 54.535 47.3569 54.535C47.1012 54.535 46.8456 54.5699 46.6015 54.535C45.6021 54.3491 45.4278 54.8023 45.4278 55.7203C45.4278 56.6152 45.637 56.9986 46.5667 56.8476C46.8688 56.8011 47.1942 56.8476 47.508 56.8476C47.7288 56.8476 47.845 56.9522 47.8566 57.1962C47.8566 57.4402 47.7288 57.5448 47.5196 57.5565C47.0199 57.5681 46.5086 57.5913 46.0089 57.5681C45.6021 57.5565 45.4278 57.7191 45.4627 58.1259C45.4627 58.2188 45.4627 58.3118 45.4627 58.4048C45.4472 59.4352 45.9546 59.9504 46.985 59.9504C47.171 59.9504 47.3569 59.9504 47.5545 59.9504C47.7985 59.9504 47.8682 60.0898 47.8682 60.3222C47.8682 60.5547 47.752 60.6592 47.5196 60.6592C46.6132 60.6592 45.6951 60.6476 44.7887 60.6592C44.3122 60.6592 44.4168 60.3339 44.4168 60.0782C44.4168 59.1369 44.4168 58.1956 44.4168 57.2543L44.3819 57.2311Z" fill="white"/>
<path d="M57.7222 53.6479C58.1871 53.5898 58.6287 53.799 59.0238 54.0314C59.2329 54.1593 59.57 54.2871 59.384 54.659C59.1865 55.0425 58.9192 54.9843 58.617 54.7403C58.2684 54.4614 57.8965 54.2755 57.4085 54.3684C57.0366 54.4382 56.7461 54.566 56.6299 54.9495C56.502 55.333 56.6647 55.67 56.9552 55.8559C57.4201 56.1581 57.943 56.4021 58.4427 56.6461C59.4654 57.1458 59.9651 57.8547 59.8489 58.7495C59.7443 59.5746 59.4073 60.237 58.5008 60.4811C57.4898 60.76 56.3277 60.4694 55.735 59.7722C55.5259 59.5398 55.4561 59.3771 55.735 59.1679C56.0256 58.9587 56.2115 58.889 56.5136 59.226C57.2109 60.0162 57.9082 60.1208 58.5357 59.6095C59.1748 59.0982 59.1748 58.3428 58.466 57.9128C57.9082 57.5642 57.2922 57.3318 56.7112 57.0064C55.8977 56.5532 55.5956 55.8559 55.8396 54.9379C56.0604 54.1476 56.7809 53.6131 57.699 53.6247L57.7222 53.6479Z" fill="white"/>
<path d="M40.8027 58.3565C41.1862 57.0318 41.5813 55.7186 41.9416 54.3822C42.0346 54.0452 42.1508 53.7082 42.5343 53.8476C42.9294 53.9987 42.6272 54.3008 42.5575 54.5449C42.0462 56.381 41.5232 58.2287 41.0352 60.0648C40.9422 60.4135 40.8492 60.6226 40.4309 60.6343C40.0358 60.6459 39.9776 60.367 39.8731 60.1229C39.8033 59.9486 39.7569 59.7627 39.6987 59.5884C39.1409 57.7058 38.5831 55.8232 38.0253 53.9406C38.8272 53.6501 39.2107 53.8476 39.4082 54.6727C39.6871 55.858 40.1055 57.0085 40.4657 58.1822C40.5587 58.2868 40.5819 58.5309 40.8144 58.3565H40.8027Z" fill="white"/>
<path d="M2.99917 57.5074C2.99917 56.7521 2.9643 55.9967 3.01079 55.253C3.04565 54.6719 2.87134 54.4395 2.29029 54.5325C2.10435 54.5557 1.91842 54.5325 1.72086 54.5325C1.43034 54.5325 1.36061 54.3349 1.37223 54.0793C1.38385 53.8003 1.59303 53.8352 1.77896 53.8352C2.97592 53.8352 4.16126 53.8352 5.35822 53.8352C5.57902 53.8352 5.79982 53.812 5.82306 54.1374C5.85792 54.5208 5.59064 54.5673 5.33498 54.5208C4.19612 54.3233 4.09154 54.9276 4.13802 55.8573C4.20775 57.2053 4.13802 58.5533 4.16126 59.9014C4.16126 60.343 4.17288 60.6683 3.54535 60.6683C2.85971 60.6683 2.98754 60.2616 2.98754 59.8665C2.98754 59.0879 2.98754 58.2977 2.98754 57.5191L2.99917 57.5074Z" fill="white"/>
<path d="M84.3113 57.1945C84.3113 56.288 84.323 55.37 84.3113 54.4635C84.3113 54.0219 84.3462 53.7779 84.9156 53.8128C85.6942 53.8709 86.4845 53.8244 87.2747 53.836C87.4722 53.836 87.7628 53.7547 87.786 54.0917C87.7976 54.3938 87.5536 54.4171 87.3212 54.4171C87.2282 54.4171 87.1352 54.4171 87.0423 54.4171C85.3805 54.4519 85.1597 54.7541 85.4386 56.4275C85.4967 56.7645 85.6361 56.8342 85.9267 56.8342C86.4264 56.8226 86.9377 56.8342 87.4374 56.8342C87.5885 56.8342 87.7744 56.8342 87.786 57.0434C87.8093 57.2758 87.6814 57.3804 87.449 57.3804C87.0423 57.3804 86.6239 57.4269 86.2288 57.3572C85.5315 57.2409 85.3805 57.5431 85.4386 58.1706C85.4967 58.7284 85.4386 59.2979 85.4502 59.8673C85.4502 60.2973 85.4734 60.6343 84.8343 60.6575C84.1603 60.6808 84.3462 60.2624 84.3346 59.9254C84.323 59.4489 84.3346 58.9841 84.3346 58.5076C84.3346 58.066 84.3346 57.6244 84.3346 57.1828L84.3113 57.1945Z" fill="white"/>
<path d="M66.4727 53.8351C67.0072 53.8351 67.5418 53.8351 68.0764 53.8351C68.3088 53.8351 68.6109 53.7537 68.5993 54.1721C68.5993 54.4858 68.3785 54.5672 68.1577 54.5207C66.984 54.2999 66.9259 54.9623 66.9724 55.8571C67.0305 57.1703 66.9956 58.4951 66.9724 59.8199C66.9724 60.1685 67.1699 60.6449 66.4494 60.6566C65.787 60.6566 65.7638 60.3428 65.7638 59.8431C65.787 58.3324 65.7405 56.8217 65.787 55.3225C65.7987 54.7299 65.6592 54.451 65.0084 54.5091C64.7179 54.5323 64.2066 54.7183 64.2414 54.1372C64.2763 53.5794 64.776 53.8699 65.0549 53.8351C65.5197 53.7886 65.9962 53.8234 66.4727 53.8234V53.8351Z" fill="white"/>
<path d="M72.0737 56.881C72.9414 54.8512 73.6271 53.8595 74.1306 53.906C73.8634 54.5103 73.6193 55.1262 73.3172 55.7072C72.6664 56.9739 72.1435 58.2638 72.341 59.7281C72.3875 60.0883 72.434 60.4834 71.8181 60.4718C71.2487 60.4602 71.2951 60.0883 71.3532 59.7629C71.667 57.8106 70.5514 56.2883 69.8309 54.6497C69.7147 54.4057 69.3428 54.0571 69.7612 53.8711C70.0749 53.7317 70.5514 53.6736 70.7954 54.2081C71.1789 55.0681 71.6089 55.8932 72.097 56.881H72.0737Z" fill="white"/>
<path d="M61.8009 57.1471C61.8009 56.2407 61.8009 55.3226 61.8009 54.4162C61.8009 54.1257 61.6963 53.777 62.2309 53.8119C62.6143 53.8351 62.9049 53.8468 62.9049 54.3465C62.8932 56.2639 62.8932 58.1698 62.9049 60.0872C62.9049 60.5753 62.6492 60.6102 62.2541 60.645C61.7311 60.6915 61.8009 60.3661 61.8009 60.064C61.8009 59.0878 61.8009 58.1233 61.8009 57.1471Z" fill="white"/>
<path d="M97.5129 57.1733C97.5129 56.2668 97.5129 55.3488 97.5129 54.4423C97.5129 54.1518 97.3967 53.7916 97.9429 53.8264C98.338 53.8497 98.5937 53.8845 98.582 54.3842C98.5588 56.3017 98.5704 58.2192 98.582 60.1366C98.582 60.5666 98.3961 60.6363 98.001 60.6596C97.5245 60.6944 97.5013 60.4504 97.5013 60.1017C97.5013 59.1256 97.5013 58.1494 97.5013 57.1733H97.5129Z" fill="white"/>
<path d="M36.3631 57.3358C36.3631 58.2423 36.3631 59.1603 36.3631 60.0668C36.3631 60.3922 36.3863 60.6711 35.8866 60.6478C35.4334 60.6362 35.2823 60.4967 35.294 60.0552C35.3056 58.1726 35.3172 56.2783 35.294 54.3957C35.294 53.9309 35.4683 53.8263 35.8982 53.8147C36.3979 53.8031 36.3631 54.082 36.3631 54.4074C36.3631 55.3835 36.3631 56.3597 36.3631 57.3358Z" fill="white"/>
<path d="M40.8025 58.3571C40.8141 58.4968 40.8491 58.7064 40.6511 58.6715C40.3717 58.6249 40.4299 58.3804 40.4649 58.1709C40.5813 58.2291 40.6977 58.2873 40.8141 58.3455L40.8025 58.3571Z" fill="white"/>
<path d="M23.2773 40.2609C21.139 33.0559 19.0124 25.8393 16.8625 18.6343C16.235 16.5076 16.2117 16.5309 13.9805 16.589C13.4692 16.6006 13.3065 16.7865 13.167 17.263C12.156 20.7841 11.1101 24.2937 10.0759 27.8148C8.8789 31.8705 7.69356 35.9263 6.4966 39.982C6.40363 40.2725 6.20608 40.6095 6.41525 40.8768C6.72902 41.2603 8.48378 40.8071 8.62324 40.319C9.28563 38.0645 9.9364 35.8101 10.5872 33.544C10.7383 33.0094 10.959 32.7189 11.6214 32.7305C13.3181 32.7886 15.0264 32.7654 16.723 32.7305C17.246 32.7305 17.4784 32.8467 17.6295 33.4045C18.2338 35.6125 18.9426 37.7856 19.5586 39.9936C19.7561 40.7025 20.0466 41.0279 20.8485 40.9349C21.6852 40.8419 22.5335 40.9117 23.3702 40.9117C23.4864 40.656 23.3586 40.4468 23.2889 40.2493L23.2773 40.2609ZM15.9909 30.4528C14.701 30.4063 13.4111 30.4295 12.1211 30.4528C11.6447 30.4528 11.5401 30.3598 11.6912 29.8717C12.493 27.2454 13.2484 24.5958 14.027 21.9579C14.0851 21.9579 14.1432 21.9579 14.2129 21.9695C14.608 23.2478 15.0031 24.5261 15.3866 25.8044C15.7701 27.0943 16.1304 28.3843 16.5255 29.6742C16.6766 30.1855 16.6998 30.4877 15.9909 30.4528Z" fill="white"/>
<path d="M82.4289 55.6741C82.1035 54.4655 81.2319 53.7217 80.1279 53.652C78.8729 53.5707 78.0129 54.1052 77.5248 55.3719C77.0484 56.6154 77.0716 57.8937 77.6759 59.1022C78.4777 60.7175 80.4998 61.0894 81.6851 59.8344C82.3824 59.0906 82.638 58.1609 82.6497 56.9756C82.731 56.6386 82.5567 56.1505 82.4289 55.6741ZM80.8368 59.4741C80.3139 60.0435 79.6979 60.0668 79.1285 59.5206C78.4429 58.8582 78.3034 58.0099 78.2686 57.1499C78.3034 56.3016 78.4313 55.4997 78.9542 54.8257C79.5236 54.0936 80.2325 54.0704 80.8484 54.756C81.8246 55.8484 81.813 58.3934 80.8368 59.4741Z" fill="white"/>
<path d="M95.7224 59.9851C95.1994 58.1838 94.6881 56.3826 94.1303 54.5813C94.0373 54.2676 94.0489 53.8143 93.4795 53.8143C92.9101 53.8143 92.9217 54.2095 92.8287 54.5581C92.3755 56.1153 91.8874 57.6725 91.4807 59.2413C91.3645 59.6829 90.7253 60.4034 91.3529 60.5777C92.0966 60.7869 91.9107 59.7991 92.085 59.3459C92.3058 58.7533 92.422 58.1838 93.2587 58.4162C94.0489 58.1606 94.3046 58.6254 94.4324 59.2878C94.5022 59.6248 94.6184 59.9502 94.723 60.2756C94.8857 60.8102 95.3505 60.6707 95.6643 60.601C96.0594 60.5196 95.7921 60.1943 95.7224 59.9851ZM93.7236 57.5795C93.4795 57.7074 93.0728 57.7074 92.8287 57.5795C92.4685 57.4168 92.7823 57.1031 92.852 56.859C92.9566 56.4407 93.1076 56.0456 93.3052 55.4413C93.4795 56.0456 93.619 56.4407 93.7119 56.8358C93.77 57.0798 94.0722 57.4052 93.7352 57.5679L93.7236 57.5795Z" fill="white"/>
</g>
<defs>
<clipPath id="clip0_1_141">
<rect width="109.307" height="59.8131" fill="white" transform="translate(0.906555 0.937531)"/>
</clipPath>
</defs>
</svg>
