<svg width="27" height="35" viewBox="0 0 27 35" fill="none" xmlns="http://www.w3.org/2000/svg">
<path d="M6.82967 27.0938H20.2045V24.6016H6.82967V27.0938ZM6.82967 20.0325H20.2045V17.5403H6.82967V20.0325ZM2.71752 34.1551C2.05293 34.1551 1.47142 33.9059 0.972974 33.4074C0.474532 32.909 0.225311 32.3275 0.225311 31.6629V3.41779C0.225311 2.7532 0.474532 2.17169 0.972974 1.67325C1.47142 1.1748 2.05293 0.925583 2.71752 0.925583H17.7123L26.8089 10.0222V31.6629C26.8089 32.3275 26.5597 32.909 26.0612 33.4074C25.5628 33.9059 24.9813 34.1551 24.3167 34.1551H2.71752ZM16.4662 11.1437H24.3167L16.4662 3.41779V11.1437Z" fill="#A4A4A4"/>
</svg>
