<svg width="28" height="26" viewBox="0 0 28 26" fill="none" xmlns="http://www.w3.org/2000/svg">
<path d="M13.7788 12.4988C11.9512 12.4988 10.4558 11.9173 9.29281 10.7542C8.12978 9.5912 7.54827 8.09587 7.54827 6.26825C7.54827 4.44063 8.12978 2.9453 9.29281 1.78227C10.4558 0.619236 11.9512 0.0377197 13.7788 0.0377197C15.6064 0.0377197 17.1017 0.619236 18.2648 1.78227C19.4278 2.9453 20.0093 4.44063 20.0093 6.26825C20.0093 8.09587 19.4278 9.5912 18.2648 10.7542C17.1017 11.9173 15.6064 12.4988 13.7788 12.4988V12.4988ZM0.487 25.8321V21.9276C0.487 20.8754 0.750066 19.9754 1.2762 19.2277C1.80233 18.4801 2.48077 17.9124 3.31151 17.5247C5.16682 16.694 6.94598 16.0709 8.64899 15.6556C10.352 15.2402 12.0619 15.0325 13.7788 15.0325C15.4957 15.0325 17.1987 15.2471 18.8878 15.6763C20.577 16.1056 22.3492 16.7217 24.2045 17.5247C25.063 17.9124 25.7553 18.4801 26.2814 19.2277C26.8075 19.9754 27.0706 20.8754 27.0706 21.9276V25.8321H0.487Z" fill="#A4A4A4"/>
</svg>
