<svg width="34" height="35" viewBox="0 0 34 35" fill="none" xmlns="http://www.w3.org/2000/svg">
<path d="M17.487 27.2184C17.9301 27.2184 18.3039 27.0661 18.6085 26.7615C18.9131 26.4569 19.0654 26.0831 19.0654 25.64C19.0654 25.197 18.9131 24.8231 18.6085 24.5185C18.3039 24.2139 17.9301 24.0616 17.487 24.0616C17.0439 24.0616 16.6701 24.2139 16.3655 24.5185C16.0609 24.8231 15.9086 25.197 15.9086 25.64C15.9086 26.0831 16.0609 26.4569 16.3655 26.7615C16.6701 27.0661 17.0439 27.2184 17.487 27.2184ZM16.0332 21.154H18.4839C18.4839 20.4341 18.5739 19.7764 18.7539 19.181C18.9339 18.5857 19.4946 17.9003 20.4361 17.125C21.2945 16.405 21.9038 15.6989 22.2637 15.0066C22.6237 14.3143 22.8037 13.5528 22.8037 12.7221C22.8037 11.2544 22.326 10.0775 21.3707 9.19142C20.4154 8.3053 19.1485 7.86224 17.5701 7.86224C16.2132 7.86224 15.0156 8.20146 13.9771 8.87989C12.9387 9.55833 12.1841 10.4929 11.7134 11.6836L13.9148 12.5144C14.2194 11.739 14.6763 11.1367 15.2855 10.7075C15.8948 10.2783 16.6147 10.0637 17.4455 10.0637C18.387 10.0637 19.1485 10.3198 19.73 10.8321C20.3115 11.3444 20.6023 12.0021 20.6023 12.8051C20.6023 13.4143 20.4223 13.9889 20.0623 14.5289C19.7023 15.0689 19.1762 15.6296 18.4839 16.2111C17.6531 16.9311 17.037 17.6442 16.6355 18.3503C16.234 19.0564 16.0332 19.991 16.0332 21.154V21.154ZM17.3209 34.1551C15.0502 34.1551 12.9041 33.7189 10.8826 32.8467C8.86118 31.9744 7.09586 30.7837 5.58669 29.2745C4.07752 27.7653 2.88679 26 2.01452 23.9785C1.14225 21.9571 0.706108 19.811 0.706108 17.5403C0.706108 15.242 1.14225 13.082 2.01452 11.0606C2.88679 9.03912 4.07752 7.28072 5.58669 5.7854C7.09586 4.29007 8.86118 3.10627 10.8826 2.23399C12.9041 1.36172 15.0502 0.925583 17.3209 0.925583C19.6192 0.925583 21.7791 1.36172 23.8006 2.23399C25.8221 3.10627 27.5805 4.29007 29.0758 5.7854C30.5711 7.28072 31.7549 9.03912 32.6272 11.0606C33.4995 13.082 33.9356 15.242 33.9356 17.5403C33.9356 19.811 33.4995 21.9571 32.6272 23.9785C31.7549 26 30.5711 27.7653 29.0758 29.2745C27.5805 30.7837 25.8221 31.9744 23.8006 32.8467C21.7791 33.7189 19.6192 34.1551 17.3209 34.1551Z" fill="white"/>
</svg>
