<svg width="31" height="35" viewBox="0 0 31 35" fill="none" xmlns="http://www.w3.org/2000/svg">
<path d="M13.2378 28.0076L7.50568 22.3171L9.25022 20.5725L13.2378 24.477L20.8805 16.8342L22.6251 18.6203L13.2378 28.0076ZM2.72894 34.1551C2.06435 34.1551 1.48283 33.9059 0.984388 33.4074C0.485946 32.909 0.236725 32.3275 0.236725 31.6629V5.91001C0.236725 5.24542 0.485946 4.6639 0.984388 4.16546C1.48283 3.66702 2.06435 3.41779 2.72894 3.41779H5.42883V0.925583H8.12873V3.41779H22.2513V0.925583H24.9512V3.41779H27.6511C28.3156 3.41779 28.8972 3.66702 29.3956 4.16546C29.894 4.6639 30.1433 5.24542 30.1433 5.91001V31.6629C30.1433 32.3275 29.894 32.909 29.3956 33.4074C28.8972 33.9059 28.3156 34.1551 27.6511 34.1551H2.72894ZM2.72894 31.6629H27.6511V13.802H2.72894V31.6629Z" fill="white"/>
</svg>
