<svg width="34" height="27" viewBox="0 0 34 27" fill="none" xmlns="http://www.w3.org/2000/svg">
<path d="M27.7705 14.7864V12.2942H34.001V14.7864H27.7705ZM29.8474 26.8321L24.8214 23.0938L26.3167 21.1L31.3427 24.8383L29.8474 26.8321ZM26.4413 5.93907L24.946 3.9453L29.8474 0.24852L31.3427 2.24229L26.4413 5.93907ZM6.17134 25.1706V18.5247H3.26376C2.57148 18.5247 1.98304 18.2824 1.49844 17.7978C1.01384 17.3132 0.771545 16.7248 0.771545 16.0325V11.0481C0.771545 10.3558 1.01384 9.76738 1.49844 9.28279C1.98304 8.79819 2.57148 8.55589 3.26376 8.55589H10.7404L19.0478 3.57147V23.5092L10.7404 18.5247H8.66355V25.1706H6.17134ZM20.7092 19.1063V7.97438C21.4569 8.63897 22.0592 9.44894 22.5161 10.4043C22.973 11.3596 23.2015 12.405 23.2015 13.5403C23.2015 14.6757 22.973 15.721 22.5161 16.6763C22.0592 17.6317 21.4569 18.4417 20.7092 19.1063Z" fill="white"/>
</svg>
