<svg width="35" height="31" viewBox="0 0 35 31" fill="none" xmlns="http://www.w3.org/2000/svg">
<path d="M2.9969 30.4936C2.33231 30.4936 1.75079 30.2444 1.25235 29.7459C0.753906 29.2475 0.504684 28.666 0.504684 28.0014V3.07926C0.504684 2.41467 0.753906 1.83316 1.25235 1.33472C1.75079 0.836273 2.33231 0.587051 2.9969 0.587051H31.9066C32.5711 0.587051 33.1527 0.836273 33.6511 1.33472C34.1495 1.83316 34.3988 2.41467 34.3988 3.07926V28.0014C34.3988 28.666 34.1495 29.2475 33.6511 29.7459C33.1527 30.2444 32.5711 30.4936 31.9066 30.4936H2.9969ZM5.8214 23.8477H14.1288V20.5247H5.8214V23.8477ZM21.6885 20.5247L29.9128 12.3004L27.5452 9.93285L21.6885 15.8311L19.3209 13.4635L16.9948 15.8311L21.6885 20.5247ZM5.8214 17.2018H14.1288V13.8788H5.8214V17.2018ZM5.8214 10.5559H14.1288V7.23295H5.8214V10.5559Z" fill="white"/>
</svg>
