<svg width="51" height="50" viewBox="0 0 51 50" fill="none" xmlns="http://www.w3.org/2000/svg">
<g clip-path="url(#clip0_1_178)">
<path d="M9.09631 39.0187C11.7131 37.3572 14.2988 36.1007 16.8533 35.2492C19.4078 34.3977 22.1804 33.972 25.1711 33.972C28.1617 33.972 30.9447 34.3977 33.52 35.2492C36.0953 36.1007 38.6913 37.3572 41.3082 39.0187C43.1358 36.7757 44.4338 34.512 45.2022 32.2274C45.9707 29.9429 46.3549 27.5338 46.3549 25C46.3549 18.9772 44.33 13.9408 40.2801 9.89098C36.2303 5.84114 31.1939 3.81621 25.1711 3.81621C19.1482 3.81621 14.1119 5.84114 10.062 9.89098C6.0122 13.9408 3.98728 18.9772 3.98728 25C3.98728 27.5338 4.38188 29.9429 5.17108 32.2274C5.96028 34.512 7.26869 36.7757 9.09631 39.0187ZM25.1711 26.8692C22.7619 26.8692 20.737 26.0488 19.0963 24.4081C17.4556 22.7674 16.6353 20.7425 16.6353 18.3333C16.6353 15.9242 17.4556 13.8993 19.0963 12.2586C20.737 10.6179 22.7619 9.79752 25.1711 9.79752C27.5802 9.79752 29.6051 10.6179 31.2458 12.2586C32.8866 13.8993 33.7069 15.9242 33.7069 18.3333C33.7069 20.7425 32.8866 22.7674 31.2458 24.4081C29.6051 26.0488 27.5802 26.8692 25.1711 26.8692ZM25.1711 49.9221C21.682 49.9221 18.4213 49.2679 15.3891 47.9595C12.357 46.6511 9.71937 44.865 7.47638 42.6013C5.23339 40.3375 3.46807 37.6895 2.18043 34.6573C0.892784 31.6251 0.248962 28.3853 0.248962 24.9377C0.248962 21.5317 0.903168 18.3126 2.21158 15.2804C3.51999 12.2482 5.30608 9.61061 7.56983 7.36762C9.83359 5.12463 12.4816 3.34892 15.5138 2.04051C18.546 0.732102 21.7858 0.0778961 25.2334 0.0778961C28.6394 0.0778961 31.8585 0.732102 34.8907 2.04051C37.9229 3.34892 40.5605 5.12463 42.8035 7.36762C45.0465 9.61061 46.8222 12.2482 48.1306 15.2804C49.439 18.3126 50.0932 21.5525 50.0932 25C50.0932 28.406 49.439 31.6251 48.1306 34.6573C46.8222 37.6895 45.0465 40.3375 42.8035 42.6013C40.5605 44.865 37.9229 46.6511 34.8907 47.9595C31.8585 49.2679 28.6186 49.9221 25.1711 49.9221Z" fill="white"/>
</g>
<defs>
<clipPath id="clip0_1_178">
<rect x="0.248962" y="0.0778961" width="49.8442" height="49.8442" rx="24.9221" fill="white"/>
</clipPath>
</defs>
</svg>
